<svg xmlns="http://www.w3.org/2000/svg" version="1.1" xmlns:xlink="http://www.w3.org/1999/xlink" xmlns:svgjs="http://svgjs.dev/svgjs" width="1000" height="1000" viewBox="0 0 1000 1000"><rect width="1000" height="1000" fill="#ffffff"></rect><g transform="matrix(0.7,0,0,0.7,149.57578820034206,413.77704733363703)"><svg viewBox="0 0 396 98" data-background-color="#1f2d5a" preserveAspectRatio="xMidYMid meet" height="247" width="1000" xmlns="http://www.w3.org/2000/svg" xmlns:xlink="http://www.w3.org/1999/xlink"><g id="tight-bounds" transform="matrix(1,0,0,1,0.2399826752350691,-0.1286907963934425)"><svg viewBox="0 0 395.52 98.25734694325695" height="98.25734694325695" width="395.52"><g><svg viewBox="0 0 562.2966171536563 139.68895074000437" height="98.25734694325695" width="395.52"><g transform="matrix(1,0,0,1,0,41.159151137920276)"><svg viewBox="0 0 395.52 57.37064846416382" height="57.37064846416382" width="395.52"><g id="textblocktransform"><svg viewBox="0 0 395.52 57.37064846416382" height="57.37064846416382" width="395.52" id="textblock"><g><svg viewBox="0 0 395.52 57.37064846416382" height="57.37064846416382" width="395.52"><g transform="matrix(1,0,0,1,0,0)"><svg width="395.52" viewBox="5 -33.25 231.8800048828125 34" height="57.37064846416382" data-palette-color="#fbfbfb"><g class="undefined-text-0" data-fill-palette-color="primary" id="text-0"><path d="M8.5-26.9L8.5 0 5 0 5-32.5 10.25-32.5 15.95-11.05 21.7-32.5 26.95-32.5 26.95 0 23.45 0 23.45-26.9 17.6-5 14.35-5 8.5-26.9ZM53.2-26.25L53.2-26.25 53.2-6.25Q53.2-2.9 51.07-1.07 48.95 0.75 44.72 0.75 40.5 0.75 38.35-1.07 36.2-2.9 36.2-6.25L36.2-6.25 36.2-26.25Q36.2-29.6 38.32-31.43 40.45-33.25 44.67-33.25 48.9-33.25 51.05-31.43 53.2-29.6 53.2-26.25ZM49.7-6.25L49.7-6.25 49.7-26.25Q49.7-30.25 44.7-30.25 39.7-30.25 39.7-26.25L39.7-26.25 39.7-6.25Q39.7-2.25 44.7-2.25 49.7-2.25 49.7-6.25ZM79.4-32.5L72.05 0 66.8 0 59.45-32.5 62.95-32.5 69.4-3.85 75.9-32.5 79.4-32.5ZM90.89-3L93.39-3 93.39 0 84.89 0 84.89-3 87.39-3 87.39-29.5 84.89-29.5 84.89-32.5 93.39-32.5 93.39-29.5 90.89-29.5 90.89-3ZM116.64-3L116.64 0 101.89 0 101.89-32.5 116.14-32.5 116.14-29.5 105.39-29.5 105.39-18 114.14-18 114.14-15 105.39-15 105.39-3 116.64-3Z" fill="#000000" data-fill-palette-color="primary"></path><path d="M118.64 0L125.99-32.5 131.24-32.5 138.59 0 135.09 0 133.39-7.5 123.84-7.5 122.14 0 118.64 0ZM132.69-10.5L128.59-28.6 124.49-10.5 132.69-10.5ZM149.09-11.5L149.09 0 145.59 0 145.59-32.5 153.14-32.5Q157.04-32.5 159.06-30.65 161.09-28.8 161.09-25.5L161.09-25.5 161.09-18.5Q161.09-13.4 156.69-12L156.69-12 162.84 0 158.99 0 153.14-11.5 149.09-11.5ZM157.59-18.5L157.59-18.5 157.59-25.5Q157.59-27.4 156.44-28.45 155.29-29.5 153.14-29.5L153.14-29.5 149.09-29.5 149.09-14.5 153.14-14.5Q157.59-14.5 157.59-18.5ZM184.59-3L184.59 0 169.84 0 169.84-32.5 184.09-32.5 184.09-29.5 173.34-29.5 173.34-18 182.09-18 182.09-15 173.34-15 173.34-3 184.59-3ZM195.58-25L195.58 0 192.08 0 192.08-32.5 195.58-32.5 206.43-7.5 206.43-32.5 209.93-32.5 209.93 0 206.43 0 195.58-25ZM216.93 0L224.28-32.5 229.53-32.5 236.88 0 233.38 0 231.68-7.5 222.13-7.5 220.43 0 216.93 0ZM230.98-10.5L226.88-28.6 222.78-10.5 230.98-10.5Z" fill="#000000" data-fill-palette-color="accent"></path></g></svg></g></svg></g></svg></g></svg></g><g transform="matrix(1,0,0,1,422.6076664136519,0)"><svg viewBox="0 0 139.68895074000437 139.68895074000437" height="139.68895074000437" width="139.68895074000437"><g><svg></svg></g><g id="icon-0"><svg viewBox="0 0 139.68895074000437 139.68895074000437" height="139.68895074000437" width="139.68895074000437"><g><path d="M0 69.844c0-38.574 31.27-69.844 69.844-69.844 38.574 0 69.844 31.27 69.845 69.844 0 38.574-31.27 69.844-69.845 69.845-38.574 0-69.844-31.27-69.844-69.845zM69.844 134.515c35.717 0 64.671-28.954 64.671-64.671 0-35.717-28.954-64.671-64.671-64.67-35.717 0-64.671 28.954-64.67 64.67 0 35.717 28.954 64.671 64.67 64.671z" data-fill-palette-color="accent" fill="#000000" stroke="transparent"></path></g><g transform="matrix(1,0,0,1,29.42560602673425,36.65023484654543)"><svg viewBox="0 0 80.83773868653587 66.38848104691351" height="66.38848104691351" width="80.83773868653587"><g><svg xmlns="http://www.w3.org/2000/svg" xmlns:xlink="http://www.w3.org/1999/xlink" version="1.1" x="0" y="0" viewBox="3.062000274658203 5.375 25.875 21.25" enable-background="new 0 0 32 32" xml:space="preserve" height="66.38848104691351" width="80.83773868653587" class="icon-s-0" data-fill-palette-color="accent" id="s-0"><path d="M27.688 5.375v1.094h-4.5V5.375H8.562v1.094h-4.5V5.375h-1v21.25h1v-1.094h4.5v1.094h14.625v-1.094h4.5v1.094h1.25V5.375H27.688zM8.562 24.219h-4.5v-3.125h4.5V24.219zM8.562 19.781h-4.5v-3.125h4.5V19.781zM8.562 15.344h-4.5v-3.125h4.5V15.344zM8.562 10.906h-4.5V7.781h4.5V10.906zM11.747 21.09V10.254l9.382 5.418L11.747 21.09zM27.688 24.219h-4.5v-3.125h4.5V24.219zM27.688 19.781h-4.5v-3.125h4.5V19.781zM27.688 15.344h-4.5v-3.125h4.5V15.344zM27.688 10.906h-4.5V7.781h4.5V10.906z" fill="#000000" data-fill-palette-color="accent"></path></svg></g></svg></g></svg></g></svg></g></svg></g><defs></defs></svg><rect width="395.52" height="98.25734694325695" fill="none" stroke="none" visibility="hidden"></rect></g></svg></g></svg>